<svg width="355" height="40" viewBox="0 0 355 40" xmlns="http://www.w3.org/2000/svg" xmlns:xlink="http://www.w3.org/1999/xlink"><defs><path id="a" d="M0 .723h24.373V39H0z"/><path id="c" d="M.232.519h27.333V28H.232z"/><path id="e" d="M0 40h355V0H0z"/></defs><g fill="none" fill-rule="evenodd"><g transform="translate(0 1)"><mask id="b" fill="#fff"><use xlink:href="#a"/></mask><path d="M12.16 31.996c3.434 0 4.961-2.932 4.961-5.755V.723h7.252v24.975C24.373 35.09 18.102 39 11.94 39 5.398 39 .001 34.548.001 27.327h7.36c0 1.628 1.308 4.669 4.798 4.669" fill="#000" mask="url(#b)"/></g><g transform="translate(26 11)"><mask id="d" fill="#fff"><use xlink:href="#c"/></mask><path d="M7.671 10.865h12.492c-.833-3.18-3.11-4.473-5.885-4.473-3.054 0-5.496 1.67-6.607 4.473m19.82 5.442H7.227c.833 4.096 4.275 5.604 7.274 5.604 3.774 0 5.385-2.262 5.385-2.262h6.995C24.77 25.036 19.719 28 14.278 28 6.783 28 .232 22.45.232 14.044.232 5.692 6.728.519 14.056.519c7.106 0 14.323 4.795 13.435 15.788" fill="#000" mask="url(#d)"/></g><path fill="#000" d="M92 12l-6.433 27h-9.514l-3.675-15.768h-.757L67.945 39h-9.514L52 12h6.919l4.162 18.846h.918l3.73-16.685h8.54l3.784 16.685h.865L85.08 12z"/><mask id="f" fill="#fff"><use xlink:href="#e"/></mask><path d="M93.165 40h6.776V12.413h-6.776V40zM92 4.69C92 2.04 94.066 0 96.553 0 98.99 0 101 2.04 101 4.69c0 2.482-2.011 4.634-4.447 4.634C94.066 9.324 92 7.172 92 4.689zM113.277 17.82c-2.323 0-3.317 1.153-3.317 2.306 0 1.866 2.488 2.415 4.145 2.745 4.92 1.043 9.895 2.525 9.895 8.344C124 36.87 119.301 40 113.608 40c-6.357 0-11.277-3.844-11.608-9.663h6.8c.165 1.647 1.27 3.789 4.642 3.789 2.819 0 3.483-1.484 3.483-2.636 0-2.031-1.935-2.635-3.815-3.075-3.26-.713-10.281-2.031-10.281-8.289 0-5.38 5.196-8.126 10.558-8.126 6.191 0 10.282 3.734 10.613 8.345h-6.8c-.22-.934-1.104-2.525-3.923-2.525M151 25.114V40h-7.273V26.762c0-2.692.434-8.13-4.45-8.13-2.39 0-7.003 1.264-7.003 8.46V40H125V1h6.893v14.392h.923c1.304-1.373 3.8-3.132 7.817-3.132 7.002 0 10.367 5.274 10.367 12.854M189 28.19C186.81 35.55 180.681 40 173.293 40 163.278 40 156 31.76 156 20.5S163.223 1 173.239 1C180.572 1 186.81 5.45 189 12.81h-8.264c-1.423-3.077-3.995-4.56-7.387-4.56-6.24 0-9.797 5.11-9.797 12.25s3.612 12.25 9.905 12.25c3.394 0 5.856-1.483 7.279-4.56H189zM217 12v27.723h-5.44l-.978-3.105h-.707c-1.088 1.386-3.481 3.382-7.942 3.382C194.699 40 191 34.789 191 27.027V12h7.398v13.362c0 3.439.272 8.206 4.949 8.206 2.393 0 6.31-1.274 6.31-8.538V12H217zM237 12v7.097a12.47 12.47 0 0 0-2.338-.222c-3.718 0-7.596 1.996-7.596 7.097V40H220V12.276h5.419l.955 3.05h.85c1.17-1.22 3.773-3.326 8.13-3.326H237zM256 12v7.097a12.467 12.467 0 0 0-2.337-.222c-3.718 0-7.597 1.996-7.597 7.097V40H239V12.276h5.419l.957 3.05h.85c1.168-1.22 3.77-3.326 8.127-3.326H256zM264.348 22.541h12.34c-.823-3.24-3.072-4.557-5.813-4.557-3.018 0-5.43 1.702-6.527 4.557m19.578 5.545H263.91c.822 4.174 4.222 5.71 7.184 5.71 3.728 0 5.32-2.305 5.32-2.305h6.91c-2.085 5.49-7.075 8.509-12.45 8.509C263.472 40 257 34.345 257 25.78c0-8.509 6.416-13.78 13.654-13.78 7.02 0 14.15 4.886 13.272 16.086M312 24.974V40h-7.204V26.637c0-.942.65-7.929-4.55-8.205-2.545-.167-7.096 1.274-7.096 8.538V40H286V12.276h5.526l.92 3.383h.921C294.505 14.273 297.051 12 301.6 12c6.988 0 10.4 5.323 10.4 12.974M328.274 33.734c-2.007 0-3.566-1.428-3.566-3.297V18.125h7.022v-5.881h-7.022V4h-6.745v5.497c0 1.977-1.28 3.242-3.176 3.242H312v5.386h5.573v12.75c0 5.552 4.626 9.125 9.976 9.125 3.611 0 5.833-1.628 6.451-2.147a11.505 11.505 0 0 1-2.727-4.926c-.492.254-1.707.807-2.999.807" fill="#000" mask="url(#f)"/><path d="M344.276 17.819c-2.321 0-3.316 1.154-3.316 2.307 0 1.866 2.488 2.414 4.145 2.744 4.92 1.043 9.895 2.526 9.895 8.345 0 5.654-4.699 8.785-10.392 8.785-6.357 0-11.276-3.844-11.608-9.664h6.799c.165 1.647 1.272 3.79 4.643 3.79 2.82 0 3.483-1.484 3.483-2.636 0-2.031-1.936-2.635-3.814-3.075-3.262-.713-10.281-2.032-10.281-8.29 0-5.38 5.195-8.125 10.557-8.125 6.19 0 10.282 3.733 10.613 8.345h-6.799c-.221-.934-1.106-2.526-3.925-2.526" fill="#000" mask="url(#f)"/></g></svg>