<svg width="19" height="16" viewBox="0 0 19 16" xmlns="http://www.w3.org/2000/svg"><path d="M18.098.289a7.473 7.473 0 0 1-2.426.956A3.753 3.753 0 0 0 12.885 0c-2.107 0-3.817 1.767-3.817 3.946 0 .31.033.61.098.899C5.993 4.68 3.18 3.11 1.296.72a4.042 4.042 0 0 0-.517 1.986A3.98 3.98 0 0 0 2.478 5.99 3.727 3.727 0 0 1 .747 5.5v.048c0 1.912 1.316 3.508 3.064 3.87a3.693 3.693 0 0 1-1.725.07c.487 1.565 1.896 2.707 3.567 2.737A7.504 7.504 0 0 1 0 13.86a10.57 10.57 0 0 0 5.853 1.771c7.025 0 10.864-6.012 10.864-11.227 0-.171-.003-.343-.01-.511a7.87 7.87 0 0 0 1.905-2.042 7.434 7.434 0 0 1-2.193.62A3.934 3.934 0 0 0 18.1.29" fill="#000" fill-rule="evenodd"/></svg>