<?xml version="1.0" standalone="no"?>
<!DOCTYPE svg PUBLIC "-//W3C//DTD SVG 20010904//EN"
 "http://www.w3.org/TR/2001/REC-SVG-20010904/DTD/svg10.dtd">
<svg version="1.0" xmlns="http://www.w3.org/2000/svg"
 width="260.000000pt" height="260.000000pt" viewBox="0 0 260.000000 260.000000"
 preserveAspectRatio="xMidYMid meet">
<metadata>
Created by potrace 1.11, written by Peter Selinger 2001-2013
</metadata>
<g transform="translate(0.000000,260.000000) scale(0.100000,-0.100000)"
fill="#000000" stroke="none">
<path d="M723 1958 c0 -315 -3 -590 -7 -612 -20 -119 -106 -189 -219 -180 -56
5 -80 16 -119 52 -28 26 -68 116 -68 152 0 19 -8 20 -156 20 l-156 0 7 -67 c7
-78 36 -168 71 -229 59 -100 188 -188 314 -213 58 -12 188 -15 230 -7 14 3 39
9 55 12 70 15 157 64 214 121 59 60 116 159 126 222 3 19 9 39 13 45 4 6 7
291 7 634 l1 622 -156 0 -157 0 0 -572z"/>
<path d="M1775 1749 c-115 -14 -162 -28 -255 -74 -194 -97 -324 -266 -390
-505 -20 -72 -24 -109 -24 -240 -1 -170 4 -216 35 -317 107 -346 387 -544 766
-542 259 2 475 111 598 303 36 57 77 153 90 213 l7 33 -166 0 -166 0 -24 -48
c-61 -119 -179 -193 -323 -200 -224 -11 -382 103 -454 327 -32 99 -34 278 -5
391 61 242 226 376 446 363 136 -7 247 -78 301 -191 13 -26 27 -50 32 -53 12
-8 327 -8 327 0 0 3 -9 40 -21 81 -77 280 -312 449 -639 463 -41 2 -102 0
-135 -4z"/>
</g>
</svg>
